<?xml version="1.0" encoding="utf-8"?>
<svg xmlns="http://www.w3.org/2000/svg" viewBox="0 0 32 32" width="24px" height="24px" xmlns:bx="https://boxy-svg.com">
  <defs>
    <bx:export>
      <bx:file format="svg"/>
    </bx:export>
  </defs>
  <path d="M 15.962 29.923 C 8.024 29.897 4.738 25.441 4.365 23.58 C 4.845 24.321 6.808 25.957 8.473 26.572 C 6.95 25.394 3.77 22.515 4.164 19.034 C 4.382 17.109 4.493 16.383 5.421 14.884 C 5.458 18.773 9.494 19.222 11.278 19.591 C 9.238 15.313 12.867 14.91 14.634 11.424 C 16.079 8.577 15.992 2.943 15.097 2.077 C 16.434 2.615 17.874 3.995 19.353 5.783 C 21.308 8.147 21.699 11.889 20.353 14.8 C 23.237 14.763 24.229 10.438 22.335 8.108 C 24.741 9.523 25.586 12.43 26.233 14.219 C 27.1 16.612 27.207 19.757 26.248 22.125 C 25.61 23.698 25.056 25.682 22.955 26.804 C 25.176 25.947 26.79 24.638 27.677 22.614 C 27.17 25.727 24.591 29.951 15.962 29.923 Z" style="stroke-linejoin: round; stroke-linecap: round; paint-order: stroke; fill: rgb(41, 39, 46); stroke: rgb(118, 118, 118);"/>
  <path style="paint-order: stroke; stroke-linejoin: round; stroke-linecap: round; transform-origin: 10.502px 10.93px; fill: rgb(41, 39, 46); stroke: rgb(124, 124, 124);" d="M 11.679 6.897 C 12.201 8.463 13.248 9.095 12.215 10.814 C 11.182 12.533 8.385 13.43 8.958 16.017 C 7.449 14.992 6.543 13.424 7.56 11.532 C 8.577 9.64 11.503 9.331 11.679 6.897 Z"/>
  <path style="stroke-miterlimit: 2.25; stroke-width: 13.4381px; fill: rgb(26, 26, 27);" d="M 16.144 18.64 C 15.542 20.531 15.265 21.788 14.209 23.223 C 13.282 24.482 9.041 24.898 7.47 23.41 C 8.176 24.875 9.315 26.34 11.181 27.201 C 13.048 28.062 13.868 28.271 16.144 28.248 C 18.421 28.224 20.401 27.783 21.493 26.852 C 22.587 25.922 23.018 25.48 24.408 23.293 C 23.466 24.57 20.737 24.986 19.009 23.624 C 17.239 22.326 16.885 20.586 16.144 18.64 Z"/>
</svg>