<?xml version="1.0" encoding="utf-8"?>
<svg xmlns="http://www.w3.org/2000/svg" viewBox="0 0 32 32" width="24px" height="24px" xmlns:bx="https://boxy-svg.com">
  <defs>
    <bx:export>
      <bx:file format="svg"/>
    </bx:export>
  </defs>
  <path d="M 15.962 29.923 C 8.024 29.897 4.738 25.441 4.365 23.58 C 4.845 24.321 6.808 25.957 8.473 26.572 C 6.95 25.394 3.444 21.881 4.098 18.439 C 4.783 14.836 4.473 16.478 5.158 14.796 C 4.997 18.266 8.239 19.97 11.72 20.736 C 10.087 16.727 12.758 14.712 14.525 11.226 C 15.968 8.378 15.639 2.943 14.744 2.077 C 16.081 2.615 17.477 3.687 18.956 5.475 C 20.911 7.839 21.015 12.792 19.757 15.527 C 20.966 14.388 24.384 12.465 22.776 8.328 C 25.182 9.743 26.005 12.694 26.652 14.483 C 27.519 16.876 27.582 19.845 26.623 22.213 C 25.985 23.786 25.056 25.682 22.955 26.804 C 25.176 25.947 26.79 24.638 27.677 22.614 C 27.17 25.727 24.591 29.951 15.962 29.923 Z" style="stroke-linejoin: round; stroke-linecap: round; paint-order: stroke; stroke: rgb(255, 126, 57); stroke-width: 2px; fill: rgb(255, 224, 56);"/>
  <path style="paint-order: stroke; stroke-linejoin: round; stroke-linecap: round; stroke: rgb(255, 126, 57); stroke-width: 2px; fill: rgb(255, 224, 56); transform-origin: 10.326px 10.599px;" d="M 10.775 5.156 C 11.297 6.722 13.359 8.345 12.326 10.064 C 11.293 11.783 8.848 13.011 8.87 15.818 C 7.666 14.287 6.443 12.333 7.405 10.452 C 8.365 8.57 10.599 7.59 10.775 5.156 Z"/>
  <path style="stroke-miterlimit: 2.25; stroke-width: 13.4381px; fill: rgb(255, 243, 147);" d="M 16.144 18.64 C 15.542 20.531 15.265 21.788 14.209 23.223 C 13.282 24.482 9.041 24.898 7.47 23.41 C 8.176 24.875 9.315 26.34 11.181 27.201 C 13.048 28.062 13.868 28.271 16.144 28.248 C 18.421 28.224 20.401 27.783 21.493 26.852 C 22.587 25.922 23.018 25.48 24.408 23.293 C 23.466 24.57 20.737 24.986 19.009 23.624 C 17.239 22.326 16.885 20.586 16.144 18.64 Z"/>
</svg>