<?xml version="1.0" encoding="utf-8"?>
<svg version="1.1" id="Layer_1" xmlns="http://www.w3.org/2000/svg" x="0px" y="0px" viewBox="0 0 114.98 122.88" style="enable-background:new 0 0 114.98 122.88">
  <style type="text/css">
	.st0{fill:#F4BB2C;}
	.st1{fill:#5C546A;}
</style>
  <path class="st1" d="M 68.024 112.938 C 66.879 114.898 65.304 116.427 63.503 117.468 C 61.899 118.407 60.107 118.941 58.315 119.054 C 56.496 119.166 54.657 118.819 52.978 118.013 C 51.834 117.45 50.764 116.671 49.817 115.658 L 68.024 112.938 Z M 70.547 93.699 L 69.956 96.466 L 69.806 98.436 L 46.046 101.972 C 45.961 100.556 45.736 99.027 45.38 97.442 L 70.547 93.699 Z M 69.759 102.751 L 69.778 103.942 L 69.806 104.355 C 69.872 105.133 69.881 105.921 69.834 106.7 L 69.478 108.417 L 47.415 111.7 L 47.031 110.818 L 46.168 107.291 L 46.149 106.268 L 69.759 102.751 Z" style="stroke: rgb(123, 142, 158); paint-order: stroke; stroke-width: 5px;"/>
  <path d="M 56.805 7.41 C 56.833 6.387 57.265 5.477 57.949 4.83 C 58.615 4.192 59.535 3.808 60.529 3.817 L 60.529 3.808 C 60.613 3.808 60.698 3.817 60.782 3.826 C 61.711 3.901 62.546 4.324 63.146 4.952 C 63.784 5.618 64.169 6.528 64.159 7.532 L 64.169 7.532 C 64.169 7.597 64.169 7.663 64.159 7.719 L 63.962 15.57 L 63.972 15.57 C 63.972 15.655 63.962 15.739 63.953 15.824 C 63.878 16.762 63.456 17.587 62.827 18.188 C 62.152 18.825 61.242 19.21 60.248 19.201 L 60.248 19.21 C 60.163 19.21 60.079 19.201 59.994 19.191 C 59.056 19.116 58.231 18.694 57.631 18.066 C 56.993 17.39 56.608 16.48 56.617 15.486 L 56.608 15.486 C 56.608 15.42 56.608 15.355 56.617 15.298 L 56.805 7.41 Z M 16.939 21.161 C 16.198 20.467 15.804 19.538 15.766 18.6 C 15.729 17.662 16.057 16.705 16.742 15.964 C 17.436 15.223 18.365 14.829 19.303 14.792 C 20.241 14.754 21.198 15.083 21.939 15.767 L 27.829 21.255 C 28.57 21.949 28.964 22.878 29.002 23.816 C 29.039 24.763 28.711 25.711 28.026 26.452 C 27.332 27.193 26.404 27.587 25.466 27.624 C 24.518 27.662 23.571 27.333 22.83 26.649 L 16.939 21.161 Z M 7.305 61.646 C 6.311 61.665 5.401 61.281 4.726 60.652 C 4.041 60.005 3.6 59.104 3.563 58.082 C 3.525 57.069 3.91 56.131 4.557 55.446 C 5.204 54.761 6.105 54.32 7.127 54.292 L 15.166 54.02 C 16.179 53.983 17.117 54.367 17.802 55.015 C 18.487 55.662 18.927 56.562 18.956 57.585 L 18.956 57.641 L 18.965 57.641 L 18.956 57.772 C 18.937 58.72 18.562 59.573 17.961 60.221 C 17.314 60.905 16.414 61.337 15.391 61.374 L 15.335 61.374 L 15.335 61.384 L 15.25 61.384 L 7.305 61.646 Z M 107.393 50.249 L 107.515 50.24 C 108.472 50.184 109.363 50.493 110.057 51.056 C 110.789 51.647 111.286 52.529 111.398 53.532 L 111.398 53.57 C 111.408 53.57 111.408 53.673 111.408 53.692 C 111.464 54.649 111.154 55.54 110.592 56.234 C 110.001 56.966 109.119 57.463 108.115 57.575 L 100.114 58.42 C 99.101 58.523 98.144 58.204 97.422 57.613 C 96.69 57.022 96.183 56.14 96.08 55.137 C 95.977 54.133 96.296 53.167 96.887 52.444 C 97.478 51.713 98.36 51.206 99.363 51.103 C 102.037 50.812 104.72 50.503 107.393 50.249 Z M 91.55 18.234 C 92.122 17.39 92.966 16.865 93.885 16.677 C 94.805 16.499 95.79 16.668 96.643 17.231 L 96.653 17.24 C 97.497 17.803 98.031 18.657 98.21 19.576 C 98.388 20.495 98.219 21.48 97.656 22.334 L 93.182 29.022 C 92.619 29.866 91.765 30.401 90.837 30.588 C 89.917 30.767 88.933 30.598 88.079 30.035 C 87.235 29.472 86.7 28.609 86.512 27.69 C 86.334 26.771 86.503 25.786 87.066 24.932 L 91.55 18.234 Z" style="fill: rgb(255, 247, 117); stroke: rgb(255, 221, 43); stroke-width: 3px;"/>
  <path class="st0" d="M 37.679 81.157 C 34.977 78.071 32.182 74.863 29.968 70.145 C 27.801 65.492 26.601 60.69 26.638 55.699 C 26.685 50.709 27.951 45.569 30.709 40.259 C 30.728 40.222 30.747 40.194 30.765 40.156 C 34.377 34.04 39.433 29.95 45.061 27.662 C 49.779 25.729 54.91 25.073 59.938 25.532 C 64.947 25.992 69.853 27.568 74.14 30.101 C 79.59 33.327 84.074 38.111 86.541 44.152 C 87.873 47.426 88.773 51.075 88.886 55.071 C 88.998 59.057 88.313 63.354 86.475 67.894 C 83.661 74.863 77.085 82.33 72.78 89.187 C 72.545 89.14 72.301 89.131 72.057 89.168 L 66.251 90.031 L 75.097 59.273 C 75.35 58.401 74.834 57.491 73.962 57.238 C 73.089 56.994 72.179 57.5 71.926 58.373 L 62.658 90.566 L 53.878 91.87 L 44.601 62.387 C 45.267 62.519 45.971 62.228 46.337 61.609 L 52.912 50.418 L 56.261 58.101 C 56.627 58.936 57.593 59.311 58.418 58.954 C 58.831 58.776 59.131 58.438 59.291 58.054 L 62.255 50.568 L 65.726 59.723 C 66.045 60.577 66.992 60.999 67.846 60.68 C 68.699 60.361 69.121 59.414 68.802 58.56 L 63.859 45.522 C 63.718 45.062 63.371 44.668 62.893 44.481 C 62.049 44.143 61.092 44.565 60.754 45.409 L 57.687 53.167 L 54.629 46.15 C 54.498 45.841 54.263 45.569 53.953 45.39 C 53.175 44.931 52.162 45.193 51.712 45.972 L 43.72 59.573 L 43.147 57.763 C 42.875 56.9 41.956 56.412 41.093 56.684 C 40.23 56.956 39.742 57.876 40.014 58.739 L 50.586 92.357 L 44.226 93.305 C 42.697 88.755 40.352 84.215 37.679 81.157 Z" style="stroke: rgb(255, 253, 195); paint-order: stroke; stroke-width: 9px;"/>
</svg>