<?xml version="1.0" encoding="UTF-8" standalone="no" ?>
<!DOCTYPE svg PUBLIC "-//W3C//DTD SVG 1.1//EN" "http://www.w3.org/Graphics/SVG/1.1/DTD/svg11.dtd">
<svg xmlns="http://www.w3.org/2000/svg" xmlns:xlink="http://www.w3.org/1999/xlink" version="1.1" width="1080" height="1080" viewBox="0 0 1080 1080" xml:space="preserve">
<desc>Created with Fabric.js 5.2.4</desc>
<defs>
</defs>
<rect x="0" y="0" width="100%" height="100%" fill="transparent"></rect>
<g transform="matrix(1 0 0 1 540 540)" id="d546691d-f646-4894-8b17-9bf134729919"  >
<rect style="stroke: none; stroke-width: 1; stroke-dasharray: none; stroke-linecap: butt; stroke-dashoffset: 0; stroke-linejoin: miter; stroke-miterlimit: 4; fill: rgb(255,255,255); fill-rule: nonzero; opacity: 1; visibility: hidden;" vector-effect="non-scaling-stroke"  x="-540" y="-540" rx="0" ry="0" width="1080" height="1080" />
</g>
<g transform="matrix(1 0 0 1 540 540)" id="3901c93e-fa35-435a-8ffe-9b13de326ffa"  >
</g>
<g transform="matrix(29.74 0 0 25.32 288.39 746.56)"  >
<path style="stroke: none; stroke-width: 1; stroke-dasharray: none; stroke-linecap: butt; stroke-dashoffset: 0; stroke-linejoin: miter; stroke-miterlimit: 4; fill: rgb(49,99,103); fill-rule: nonzero; opacity: 1;" vector-effect="non-scaling-stroke"  transform=" translate(-9.54, -24.15)" d="M 19.083 35.5 L 12.25 12.292 C 12.25 12.292 10.83 13.052999999999999 9.646 13.929 C 9.333 14.16 7.6690000000000005 16.719 7.334000000000001 16.969 C 5.572000000000001 18.284000000000002 3.7820000000000014 19.810000000000002 3.5420000000000016 20.136000000000003 C 3.083 20.76 0 36 0 36 L 19.083 35.5 z" stroke-linecap="round" />
</g>
<g transform="matrix(29.04 0 0 23.33 506.94 638.59)"  >
<path style="stroke: none; stroke-width: 1; stroke-dasharray: none; stroke-linecap: butt; stroke-dashoffset: 0; stroke-linejoin: miter; stroke-miterlimit: 4; fill: rgb(74,158,72); fill-rule: nonzero; opacity: 1;" vector-effect="non-scaling-stroke"  transform=" translate(-16.46, -18.63)" d="M 26.5 15.25 L 19.188 6.038 L 18 2.25 L 12.626999999999999 8.734 L 11.655999999999999 9.906 C 11.25 10.688 10 15.25 10 15.25 L 8.75 20 L 3.252 30.054 L 0.917 34.791 L 32 35 L 26.5 15.25 z" stroke-linecap="round" />
</g>
<g transform="matrix(24.65 0 0 24.65 540 680.04)"  >
<path style="stroke: none; stroke-width: 1; stroke-dasharray: none; stroke-linecap: butt; stroke-dashoffset: 0; stroke-linejoin: miter; stroke-miterlimit: 4; fill: rgb(39,111,82); fill-rule: nonzero; opacity: 1;" vector-effect="non-scaling-stroke"  transform=" translate(-17.67, -21.88)" d="M 12 34 L 14 34 L 16 18.25 L 17.234 16.453 L 20.812 11.219 L 20.906000000000002 9.75 L 17.619000000000003 14.204 L 15 17.752 L 12.612 25.113999999999997 L 12 27 L 10.209 30.134 L 8 34 z M 24.058999999999997 16.384 L 22.093999999999998 22.281 L 21 26 L 23.792 33.625 L 27.344 33.563 C 27.344 33.563 23 26.625 23 26 C 23 25.88 23.625 23.313 23.625 23.313 L 24.719 18.782 L 25 17.25 L 24.059 16.384 z" stroke-linecap="round" />
</g>
<g transform="matrix(29.4 0 0 23.46 810.73 649.43)"  >
<path style="stroke: none; stroke-width: 1; stroke-dasharray: none; stroke-linecap: butt; stroke-dashoffset: 0; stroke-linejoin: miter; stroke-miterlimit: 4; fill: rgb(134,191,76); fill-rule: nonzero; opacity: 1;" vector-effect="non-scaling-stroke"  transform=" translate(-27, -19.13)" d="M 36 36 C 36 36 35.616 32.155 35.146 28.917 C 35.146 28.917 35 25.032000000000004 33.875 23.75 C 32.826 22.555 31.251 21.875 31.042 21.788 L 29.813000000000002 18.265 L 27.953 13 L 25.531 10.875 L 23.686999999999998 9.249 L 23.182 8.628 L 18 2.25 L 20.289 9.549 L 20.813000000000002 11.219 L 24.059 16.384 L 24.719 18.781 L 26.157 21.061999999999998 L 26.931 23.762999999999998 L 28 27.5 L 26 34 L 36 36 z" stroke-linecap="round" />
</g>
<g transform="matrix(29.74 0 0 25.94 539.99 986.66)"  >
<path style="stroke: none; stroke-width: 1; stroke-dasharray: none; stroke-linecap: butt; stroke-dashoffset: 0; stroke-linejoin: miter; stroke-miterlimit: 4; fill: rgb(136,201,101); fill-rule: nonzero; opacity: 1;" vector-effect="non-scaling-stroke"  transform=" translate(-18, -33.63)" d="M 33.708 32.438 C 32.363 32.438 28.75 33 28.25 33 C 26.25 33 24 31.25 23 31.25 C 22 31.25 19.406 33 17.406 33 C 15.717999999999998 33 14.999999999999998 32.188 12.686999999999998 32.188 C 11.938999999999998 32.188 8.590999999999998 33.059000000000005 7.874999999999997 32.969 C 6.052 32.741 5.115 32 4.656 32 C 2 32 0 36 0 36 L 36 36 C 36 36 35.125 32.438 33.708 32.438 z" stroke-linecap="round" />
</g>
</svg>