<?xml version="1.0" encoding="utf-8"?>
<svg version="1.1" id="Layer_1" xmlns="http://www.w3.org/2000/svg" x="0px" y="0px" viewBox="0 0 24 24" style="enable-background:new 0 0 122.88 106.16">
  <style type="text/css">.st0{fill-rule:evenodd;clip-rule:evenodd;}</style>
  <path class="st0" d="M 11.994 3.658 C 12.342 1.889 15.238 3.518 15.429 6.369 C 15.486 7.241 15.396 8.256 15.182 9.39 L 19.32 9.39 C 21.041 9.457 22.543 10.69 21.482 12.713 C 21.724 13.595 21.76 14.63 21.103 15.038 C 21.186 16.43 20.801 17.292 20.08 17.973 C 20.032 18.669 19.884 19.288 19.549 19.763 C 18.992 20.548 18.542 20.36 17.666 20.36 L 10.679 20.36 C 9.572 20.36 8.968 20.056 8.244 19.148 L 8.244 11.366 C 10.327 10.803 11.434 7.954 11.994 6.083 L 11.994 3.658 Z" style="fill: rgb(255, 224, 112); stroke: rgb(231, 141, 0);"/>
  <path class="st0" d="M 2.695 10.56 L 7.757 10.56 C 8.167 10.56 8.502 10.858 8.502 11.223 L 8.502 20.027 C 8.502 20.39 8.167 20.69 7.757 20.69 L 2.695 20.69 C 2.285 20.69 1.951 20.392 1.951 20.027 L 1.951 11.223 C 1.951 10.858 2.285 10.56 2.695 10.56 Z" style="fill: rgb(229, 229, 229); stroke: rgb(142, 142, 142);"/>
</svg>